<mxfile host="app.diagrams.net" modified="2023-09-08T00:19:27.062Z" agent="Mozilla/5.0 (Windows NT 10.0; Win64; x64) AppleWebKit/537.36 (KHTML, like Gecko) Chrome/116.0.0.0 Safari/537.36" etag="_u0P7gbym2DnZIAwS2wx" version="21.7.2" type="github">
  <diagram name="Page-1" id="c7558073-3199-34d8-9f00-42111426c3f3">
    <mxGraphModel dx="2137" dy="1840" grid="1" gridSize="10" guides="1" tooltips="1" connect="1" arrows="1" fold="1" page="1" pageScale="1" pageWidth="826" pageHeight="1169" background="none" math="0" shadow="0">
      <root>
        <mxCell id="0" />
        <mxCell id="1" parent="0" />
        <mxCell id="3Wjk-fDmCc6oDtQmEqUI-96" value="" style="rounded=0;whiteSpace=wrap;html=1;" vertex="1" parent="1">
          <mxGeometry x="350" y="370" width="120" height="60" as="geometry" />
        </mxCell>
        <mxCell id="3Wjk-fDmCc6oDtQmEqUI-240" style="edgeStyle=orthogonalEdgeStyle;rounded=0;orthogonalLoop=1;jettySize=auto;html=1;exitX=0.25;exitY=1;exitDx=0;exitDy=0;entryX=0;entryY=1;entryDx=0;entryDy=0;" edge="1" parent="1" source="3Wjk-fDmCc6oDtQmEqUI-230" target="3Wjk-fDmCc6oDtQmEqUI-204">
          <mxGeometry relative="1" as="geometry" />
        </mxCell>
        <mxCell id="3Wjk-fDmCc6oDtQmEqUI-230" value="Editar Foto" style="html=1;overflow=block;blockSpacing=1;whiteSpace=wrap;fontSize=13;fontColor=#333333;align=center;spacing=3.8;strokeColor=#333333;strokeOpacity=100;fillOpacity=100;rounded=1;absoluteArcSize=1;arcSize=12;fillColor=#ffffff;strokeWidth=0.8;lucidId=lhVsCsnP8iEd;" vertex="1" parent="1">
          <mxGeometry x="1140" y="-60" width="120" height="60" as="geometry" />
        </mxCell>
        <mxCell id="3Wjk-fDmCc6oDtQmEqUI-233" style="edgeStyle=orthogonalEdgeStyle;rounded=0;orthogonalLoop=1;jettySize=auto;html=1;exitX=1;exitY=1;exitDx=0;exitDy=0;" edge="1" parent="1" source="3Wjk-fDmCc6oDtQmEqUI-210" target="3Wjk-fDmCc6oDtQmEqUI-230">
          <mxGeometry relative="1" as="geometry" />
        </mxCell>
        <mxCell id="3Wjk-fDmCc6oDtQmEqUI-164" parent="0" />
        <mxCell id="3Wjk-fDmCc6oDtQmEqUI-165" value="Registro e Login" style="html=1;overflow=block;blockSpacing=1;whiteSpace=wrap;fontSize=16;fontFamily=Roboto;fontColor=#ffffff;spacing=3.8;strokeOpacity=0;fillOpacity=100;rounded=1;absoluteArcSize=1;arcSize=7.5;fillColor=#225798;strokeWidth=1.5;lucidId=lhVskbUOv.jn;" vertex="1" parent="3Wjk-fDmCc6oDtQmEqUI-164">
          <mxGeometry x="505" y="-672" width="126" height="76" as="geometry" />
        </mxCell>
        <mxCell id="3Wjk-fDmCc6oDtQmEqUI-166" value="" style="html=1;jettySize=18;whiteSpace=wrap;fontSize=13;fontFamily=Helvetica;strokeColor=#333333;strokeOpacity=100;strokeWidth=0.8;rounded=1;arcSize=10;edgeStyle=orthogonalEdgeStyle;startArrow=none;endArrow=block;endFill=1;exitX=0.5;exitY=1;exitPerimeter=0;entryX=0.5;entryY=-0.002;entryPerimeter=0;lucidId=lhVszSRu.Gey;" edge="1" parent="3Wjk-fDmCc6oDtQmEqUI-164" source="3Wjk-fDmCc6oDtQmEqUI-165" target="3Wjk-fDmCc6oDtQmEqUI-167">
          <mxGeometry width="100" height="100" relative="1" as="geometry">
            <Array as="points" />
          </mxGeometry>
        </mxCell>
        <mxCell id="3Wjk-fDmCc6oDtQmEqUI-167" value="Possui conta?" style="html=1;overflow=block;blockSpacing=1;whiteSpace=wrap;rhombus;fontSize=13.3;fontFamily=Helvetica;fontColor=#333333;spacing=3.3;strokeColor=#225798;strokeOpacity=100;rounded=1;absoluteArcSize=1;arcSize=7.5;strokeWidth=3;lucidId=lhVs5sLIw-GN;" vertex="1" parent="3Wjk-fDmCc6oDtQmEqUI-164">
          <mxGeometry x="485" y="-546" width="166" height="130" as="geometry" />
        </mxCell>
        <mxCell id="3Wjk-fDmCc6oDtQmEqUI-168" value="" style="html=1;jettySize=18;whiteSpace=wrap;fontSize=11.7;fontFamily=Helvetica;fontColor=#333333;fontStyle=1;strokeColor=#333333;strokeOpacity=100;strokeWidth=0.8;rounded=1;arcSize=10;edgeStyle=orthogonalEdgeStyle;startArrow=none;endArrow=block;endFill=1;exitX=0.998;exitY=0.5;exitPerimeter=0;lucidId=lhVsqaOpAonb;" edge="1" parent="3Wjk-fDmCc6oDtQmEqUI-164" source="3Wjk-fDmCc6oDtQmEqUI-167">
          <mxGeometry width="100" height="100" relative="1" as="geometry">
            <Array as="points" />
            <mxPoint x="753" y="-481" as="targetPoint" />
          </mxGeometry>
        </mxCell>
        <mxCell id="3Wjk-fDmCc6oDtQmEqUI-169" value="NÃ£o" style="text;html=1;resizable=0;labelBackgroundColor=default;align=center;verticalAlign=middle;fontStyle=1;fontColor=#333333;fontSize=11.7;" vertex="1" parent="3Wjk-fDmCc6oDtQmEqUI-168">
          <mxGeometry x="-0.3903646998603848" relative="1" as="geometry" />
        </mxCell>
        <mxCell id="3Wjk-fDmCc6oDtQmEqUI-170" value="" style="group;dropTarget=0;pointerEvents=0;" vertex="1" parent="3Wjk-fDmCc6oDtQmEqUI-164">
          <mxGeometry x="250" y="-765" width="640" height="45" as="geometry" />
        </mxCell>
        <mxCell id="3Wjk-fDmCc6oDtQmEqUI-171" value="Diagrama de Fluxo" style="points=[[0.119,0.967,0],[0.893,0.967,0]];html=1;overflow=block;blockSpacing=1;whiteSpace=wrap;fontSize=24;fontColor=#1f2328;spacing=3;strokeOpacity=0;fillOpacity=0;rounded=1;absoluteArcSize=1;arcSize=12;fillColor=#ffffff;strokeWidth=1.5;lucidId=lhVseHuxbpMi;" vertex="1" parent="3Wjk-fDmCc6oDtQmEqUI-170">
          <mxGeometry width="640" height="31" as="geometry" />
        </mxCell>
        <UserObject label="%creatorName%  |  %date{mmmm d, yyyy}%" placeholders="1" id="3Wjk-fDmCc6oDtQmEqUI-172">
          <mxCell style="html=1;overflow=block;blockSpacing=1;whiteSpace=wrap;fontSize=11.5;fontColor=#a9afb8;align=center;spacingLeft=7;spacingRight=7;spacingTop=2;spacing=3;strokeOpacity=0;fillOpacity=0;rounded=1;absoluteArcSize=1;arcSize=12;fillColor=#ffffff;strokeWidth=1.5;lucidId=lhVslIsHtGjw;" vertex="1" parent="3Wjk-fDmCc6oDtQmEqUI-170">
            <mxGeometry y="31" width="640" height="14" as="geometry" />
          </mxCell>
        </UserObject>
        <mxCell id="3Wjk-fDmCc6oDtQmEqUI-173" value="" style="html=1;jettySize=18;whiteSpace=wrap;fontSize=13;fontFamily=Helvetica;strokeColor=#a9afb8;strokeOpacity=100;strokeWidth=1.5;rounded=0;startArrow=none;endArrow=none;exitX=0.119;exitY=0.967;exitPerimeter=0;entryX=0.893;entryY=0.967;entryPerimeter=0;lucidId=lhVsgKftWeC9;" edge="1" parent="3Wjk-fDmCc6oDtQmEqUI-170" source="3Wjk-fDmCc6oDtQmEqUI-171" target="3Wjk-fDmCc6oDtQmEqUI-171">
          <mxGeometry width="100" height="100" relative="1" as="geometry">
            <Array as="points">
              <mxPoint x="76" y="50" generated="1" />
              <mxPoint x="571" y="50" generated="1" />
            </Array>
          </mxGeometry>
        </mxCell>
        <mxCell id="3Wjk-fDmCc6oDtQmEqUI-174" value="Criar conta" style="html=1;overflow=block;blockSpacing=1;whiteSpace=wrap;fontSize=13;fontColor=#333333;align=center;spacing=3.8;strokeColor=#333333;strokeOpacity=100;fillOpacity=100;rounded=1;absoluteArcSize=1;arcSize=12;fillColor=#ffffff;strokeWidth=0.8;lucidId=lhVsvjKZMEy-;" vertex="1" parent="3Wjk-fDmCc6oDtQmEqUI-164">
          <mxGeometry x="750" y="-536" width="120" height="110" as="geometry" />
        </mxCell>
        <mxCell id="3Wjk-fDmCc6oDtQmEqUI-175" value="" style="html=1;jettySize=18;whiteSpace=wrap;fontSize=11.7;fontFamily=Helvetica;fontColor=#333333;fontStyle=1;strokeColor=#333333;strokeOpacity=100;strokeWidth=0.8;rounded=1;arcSize=10;edgeStyle=orthogonalEdgeStyle;startArrow=none;endArrow=block;endFill=1;exitX=0.002;exitY=0.5;exitPerimeter=0;entryX=1.003;entryY=0.5;entryPerimeter=0;lucidId=lhVsF-__3fvB;" edge="1" parent="3Wjk-fDmCc6oDtQmEqUI-164" source="3Wjk-fDmCc6oDtQmEqUI-167" target="3Wjk-fDmCc6oDtQmEqUI-178">
          <mxGeometry width="100" height="100" relative="1" as="geometry">
            <Array as="points" />
          </mxGeometry>
        </mxCell>
        <mxCell id="3Wjk-fDmCc6oDtQmEqUI-176" value="SIM" style="text;html=1;resizable=0;labelBackgroundColor=default;align=center;verticalAlign=middle;fontStyle=1;fontColor=#333333;fontSize=11.7;" vertex="1" parent="3Wjk-fDmCc6oDtQmEqUI-175">
          <mxGeometry x="-0.3903646998603848" relative="1" as="geometry" />
        </mxCell>
        <mxCell id="3Wjk-fDmCc6oDtQmEqUI-177" value="" style="html=1;jettySize=18;whiteSpace=wrap;fontSize=13;strokeColor=#333333;strokeOpacity=100;strokeWidth=0.8;rounded=1;arcSize=24;edgeStyle=orthogonalEdgeStyle;startArrow=none;endArrow=block;endFill=1;exitX=1.003;exitY=0.5;exitPerimeter=0;lucidId=lhVsKev2aLRu;" edge="1" parent="3Wjk-fDmCc6oDtQmEqUI-164" source="3Wjk-fDmCc6oDtQmEqUI-174">
          <mxGeometry width="100" height="100" relative="1" as="geometry">
            <Array as="points">
              <mxPoint x="933" y="-461" />
            </Array>
            <mxPoint x="960" y="-481" as="targetPoint" />
          </mxGeometry>
        </mxCell>
        <mxCell id="3Wjk-fDmCc6oDtQmEqUI-178" value="Entrar" style="html=1;overflow=block;blockSpacing=1;whiteSpace=wrap;fontSize=13;fontColor=#333333;align=center;spacing=3.8;strokeColor=#333333;strokeOpacity=100;fillOpacity=100;rounded=1;absoluteArcSize=1;arcSize=12;fillColor=#ffffff;strokeWidth=0.8;lucidId=lhVs7e0edb6b;" vertex="1" parent="3Wjk-fDmCc6oDtQmEqUI-164">
          <mxGeometry x="266" y="-541" width="120" height="120" as="geometry" />
        </mxCell>
        <mxCell id="3Wjk-fDmCc6oDtQmEqUI-179" value="Tela de Cadastro" style="html=1;overflow=block;blockSpacing=1;whiteSpace=wrap;fontSize=16;fontFamily=Roboto;fontColor=#ffffff;spacing=3.8;strokeOpacity=0;fillOpacity=100;rounded=1;absoluteArcSize=1;arcSize=7.5;fillColor=#225798;strokeWidth=1.5;lucidId=lhVsZ6cl~b5Y;" vertex="1" parent="3Wjk-fDmCc6oDtQmEqUI-164">
          <mxGeometry x="960" y="-516" width="126" height="76" as="geometry" />
        </mxCell>
        <mxCell id="3Wjk-fDmCc6oDtQmEqUI-180" value="" style="html=1;jettySize=18;whiteSpace=wrap;fontSize=13;strokeColor=#333333;strokeOpacity=100;strokeWidth=0.8;rounded=1;arcSize=24;edgeStyle=orthogonalEdgeStyle;startArrow=none;endArrow=block;endFill=1;exitX=0.5;exitY=0;exitPerimeter=0;lucidId=lhVsbVK9f2hA;" edge="1" parent="3Wjk-fDmCc6oDtQmEqUI-164" source="3Wjk-fDmCc6oDtQmEqUI-179">
          <mxGeometry width="100" height="100" relative="1" as="geometry">
            <Array as="points">
              <mxPoint x="1023" y="-548" />
            </Array>
            <mxPoint x="1125" y="-568" as="targetPoint" />
          </mxGeometry>
        </mxCell>
        <mxCell id="3Wjk-fDmCc6oDtQmEqUI-181" value="Preencher campo &quot;Nome do Usuario&quot;" style="html=1;overflow=block;blockSpacing=1;whiteSpace=wrap;fontSize=13;fontColor=#333333;align=center;spacing=3.8;strokeColor=#333333;strokeOpacity=100;fillOpacity=100;rounded=1;absoluteArcSize=1;arcSize=12;fillColor=#ffffff;strokeWidth=0.8;lucidId=lhVs6M0drsTN;" vertex="1" parent="3Wjk-fDmCc6oDtQmEqUI-164">
          <mxGeometry x="1125" y="-601" width="120" height="60" as="geometry" />
        </mxCell>
        <mxCell id="3Wjk-fDmCc6oDtQmEqUI-182" value="Preencher campo &quot;E-mail&quot;" style="html=1;overflow=block;blockSpacing=1;whiteSpace=wrap;fontSize=13;fontColor=#333333;align=center;spacing=3.8;strokeColor=#333333;strokeOpacity=100;fillOpacity=100;rounded=1;absoluteArcSize=1;arcSize=12;fillColor=#ffffff;strokeWidth=0.8;lucidId=lhVs6dN3CAUG;" vertex="1" parent="3Wjk-fDmCc6oDtQmEqUI-164">
          <mxGeometry x="1170" y="-536" width="120" height="60" as="geometry" />
        </mxCell>
        <mxCell id="3Wjk-fDmCc6oDtQmEqUI-183" value="Preencher campo &quot;Senha&quot;" style="html=1;overflow=block;blockSpacing=1;whiteSpace=wrap;fontSize=13;fontColor=#333333;align=center;spacing=3.8;strokeColor=#333333;strokeOpacity=100;fillOpacity=100;rounded=1;absoluteArcSize=1;arcSize=12;fillColor=#ffffff;strokeWidth=0.8;lucidId=lhVsRXJX-xjN;" vertex="1" parent="3Wjk-fDmCc6oDtQmEqUI-164">
          <mxGeometry x="1170" y="-471" width="120" height="60" as="geometry" />
        </mxCell>
        <mxCell id="3Wjk-fDmCc6oDtQmEqUI-184" value="Preencher campo &quot;ConfirmaÃ§Ã£o de senha&quot;" style="html=1;overflow=block;blockSpacing=1;whiteSpace=wrap;fontSize=13;fontColor=#333333;align=center;spacing=3.8;strokeColor=#333333;strokeOpacity=100;fillOpacity=100;rounded=1;absoluteArcSize=1;arcSize=12;fillColor=#ffffff;strokeWidth=0.8;lucidId=lhVsYpvKnJyb;" vertex="1" parent="3Wjk-fDmCc6oDtQmEqUI-164">
          <mxGeometry x="1170" y="-406" width="120" height="60" as="geometry" />
        </mxCell>
        <mxCell id="3Wjk-fDmCc6oDtQmEqUI-185" value="" style="html=1;jettySize=18;whiteSpace=wrap;fontSize=13;strokeColor=#333333;strokeOpacity=100;strokeWidth=0.8;rounded=1;arcSize=24;edgeStyle=orthogonalEdgeStyle;startArrow=none;endArrow=block;endFill=1;exitX=0.766;exitY=0;exitPerimeter=0;entryX=0.012;entryY=0.331;entryPerimeter=0;lucidId=lhVs7MBsNG3f;" edge="1" parent="3Wjk-fDmCc6oDtQmEqUI-164" source="3Wjk-fDmCc6oDtQmEqUI-179" target="3Wjk-fDmCc6oDtQmEqUI-182">
          <mxGeometry width="100" height="100" relative="1" as="geometry">
            <Array as="points" />
          </mxGeometry>
        </mxCell>
        <mxCell id="3Wjk-fDmCc6oDtQmEqUI-186" value="" style="html=1;jettySize=18;whiteSpace=wrap;fontSize=13;strokeColor=#333333;strokeOpacity=100;strokeWidth=0.8;rounded=1;arcSize=24;edgeStyle=orthogonalEdgeStyle;startArrow=none;endArrow=block;endFill=1;exitX=1;exitY=0.5;exitPerimeter=0;entryX=-0.003;entryY=0.5;entryPerimeter=0;lucidId=lhVsV~.nVZvY;" edge="1" parent="3Wjk-fDmCc6oDtQmEqUI-164" source="3Wjk-fDmCc6oDtQmEqUI-179" target="3Wjk-fDmCc6oDtQmEqUI-183">
          <mxGeometry width="100" height="100" relative="1" as="geometry">
            <Array as="points" />
          </mxGeometry>
        </mxCell>
        <mxCell id="3Wjk-fDmCc6oDtQmEqUI-187" value="" style="html=1;jettySize=18;whiteSpace=wrap;fontSize=13;strokeColor=#333333;strokeOpacity=100;strokeWidth=0.8;rounded=1;arcSize=24;edgeStyle=orthogonalEdgeStyle;startArrow=none;endArrow=block;endFill=1;exitX=0.5;exitY=1;exitPerimeter=0;entryX=-0.003;entryY=0.5;entryPerimeter=0;lucidId=lhVstLg..9ma;" edge="1" parent="3Wjk-fDmCc6oDtQmEqUI-164" source="3Wjk-fDmCc6oDtQmEqUI-179" target="3Wjk-fDmCc6oDtQmEqUI-184">
          <mxGeometry width="100" height="100" relative="1" as="geometry">
            <Array as="points" />
          </mxGeometry>
        </mxCell>
        <mxCell id="3Wjk-fDmCc6oDtQmEqUI-188" value="Tela de InÃ­cio" style="html=1;overflow=block;blockSpacing=1;whiteSpace=wrap;fontSize=16.8;fontColor=#ffffff;align=center;spacing=9;strokeOpacity=0;fillOpacity=100;rounded=1;absoluteArcSize=1;arcSize=7.5;fillColor=#225798;strokeWidth=1.5;lucidId=lhVshHyxgs-~;" vertex="1" parent="3Wjk-fDmCc6oDtQmEqUI-164">
          <mxGeometry x="-60" y="-321" width="120" height="90" as="geometry" />
        </mxCell>
        <mxCell id="3Wjk-fDmCc6oDtQmEqUI-189" value="" style="html=1;jettySize=18;whiteSpace=wrap;fontSize=13;strokeColor=#333333;strokeOpacity=100;strokeWidth=0.8;rounded=1;arcSize=24;edgeStyle=orthogonalEdgeStyle;startArrow=none;endArrow=block;endFill=1;exitX=0.5;exitY=1.003;exitPerimeter=0;entryX=0.5;entryY=0;entryPerimeter=0;lucidId=lhVsAZ7nBmhS;" edge="1" parent="3Wjk-fDmCc6oDtQmEqUI-164" source="3Wjk-fDmCc6oDtQmEqUI-178" target="3Wjk-fDmCc6oDtQmEqUI-188">
          <mxGeometry width="100" height="100" relative="1" as="geometry">
            <Array as="points" />
          </mxGeometry>
        </mxCell>
        <mxCell id="3Wjk-fDmCc6oDtQmEqUI-190" value="Criar conta" style="html=1;overflow=block;blockSpacing=1;whiteSpace=wrap;fontSize=13;fontColor=#333333;align=center;spacing=9;strokeColor=#333333;strokeOpacity=100;fillOpacity=100;rounded=1;absoluteArcSize=1;arcSize=12;fillColor=#ffffff;strokeWidth=0.8;lucidId=lhVsTT0HezWT;" vertex="1" parent="3Wjk-fDmCc6oDtQmEqUI-164">
          <mxGeometry x="1365" y="-523" width="120" height="90" as="geometry" />
        </mxCell>
        <mxCell id="3Wjk-fDmCc6oDtQmEqUI-191" value="" style="html=1;jettySize=18;whiteSpace=wrap;fontSize=13;strokeColor=#333333;strokeOpacity=100;strokeWidth=0.8;rounded=1;arcSize=24;edgeStyle=orthogonalEdgeStyle;startArrow=none;endArrow=block;endFill=1;exitX=1.003;exitY=0.5;exitPerimeter=0;entryX=-0.003;entryY=0.62;entryPerimeter=0;lucidId=lhVs48aqa.Xj;" edge="1" parent="3Wjk-fDmCc6oDtQmEqUI-164" source="3Wjk-fDmCc6oDtQmEqUI-183" target="3Wjk-fDmCc6oDtQmEqUI-190">
          <mxGeometry width="100" height="100" relative="1" as="geometry">
            <Array as="points" />
          </mxGeometry>
        </mxCell>
        <mxCell id="3Wjk-fDmCc6oDtQmEqUI-192" value="" style="html=1;jettySize=18;whiteSpace=wrap;fontSize=13;strokeColor=#333333;strokeOpacity=100;strokeWidth=0.8;rounded=1;arcSize=24;edgeStyle=orthogonalEdgeStyle;startArrow=none;endArrow=block;endFill=1;exitX=1.003;exitY=0.5;exitPerimeter=0;entryX=-0.003;entryY=0.5;entryPerimeter=0;lucidId=lhVsWy1tATNf;" edge="1" parent="3Wjk-fDmCc6oDtQmEqUI-164" source="3Wjk-fDmCc6oDtQmEqUI-182" target="3Wjk-fDmCc6oDtQmEqUI-190">
          <mxGeometry width="100" height="100" relative="1" as="geometry">
            <Array as="points" />
          </mxGeometry>
        </mxCell>
        <mxCell id="3Wjk-fDmCc6oDtQmEqUI-193" value="" style="html=1;jettySize=18;whiteSpace=wrap;fontSize=13;strokeColor=#333333;strokeOpacity=100;strokeWidth=0.8;rounded=1;arcSize=24;edgeStyle=orthogonalEdgeStyle;startArrow=none;endArrow=block;endFill=1;exitX=1.003;exitY=0.5;exitPerimeter=0;entryX=0.5;entryY=-0.004;entryPerimeter=0;lucidId=lhVszW6in.kM;" edge="1" parent="3Wjk-fDmCc6oDtQmEqUI-164" source="3Wjk-fDmCc6oDtQmEqUI-181" target="3Wjk-fDmCc6oDtQmEqUI-190">
          <mxGeometry width="100" height="100" relative="1" as="geometry">
            <Array as="points" />
          </mxGeometry>
        </mxCell>
        <mxCell id="3Wjk-fDmCc6oDtQmEqUI-194" value="" style="html=1;jettySize=18;whiteSpace=wrap;fontSize=13;strokeColor=#333333;strokeOpacity=100;strokeWidth=0.8;rounded=1;arcSize=24;edgeStyle=orthogonalEdgeStyle;startArrow=none;endArrow=block;endFill=1;exitX=1.003;exitY=0.5;exitPerimeter=0;entryX=0.5;entryY=1.004;entryPerimeter=0;lucidId=lhVsxioGyP6I;" edge="1" parent="3Wjk-fDmCc6oDtQmEqUI-164" source="3Wjk-fDmCc6oDtQmEqUI-184" target="3Wjk-fDmCc6oDtQmEqUI-190">
          <mxGeometry width="100" height="100" relative="1" as="geometry">
            <Array as="points" />
          </mxGeometry>
        </mxCell>
        <mxCell id="3Wjk-fDmCc6oDtQmEqUI-195" value="" style="html=1;jettySize=18;whiteSpace=wrap;fontSize=13;strokeColor=#333333;strokeOpacity=100;strokeWidth=0.8;rounded=1;arcSize=24;edgeStyle=orthogonalEdgeStyle;startArrow=none;endArrow=block;endFill=1;exitX=1.003;exitY=0.5;exitPerimeter=0;entryX=1;entryY=0.5;entryPerimeter=0;lucidId=lhVseHm37rw3;" edge="1" parent="3Wjk-fDmCc6oDtQmEqUI-164" source="3Wjk-fDmCc6oDtQmEqUI-190" target="3Wjk-fDmCc6oDtQmEqUI-165">
          <mxGeometry width="100" height="100" relative="1" as="geometry">
            <Array as="points" />
          </mxGeometry>
        </mxCell>
        <mxCell id="3Wjk-fDmCc6oDtQmEqUI-196" value="Explorar" style="html=1;overflow=block;blockSpacing=1;whiteSpace=wrap;fontSize=13;fontColor=#333333;align=center;spacing=9;strokeColor=#333333;strokeOpacity=100;fillOpacity=100;rounded=1;absoluteArcSize=1;arcSize=12;fillColor=#ffffff;strokeWidth=0.8;lucidId=lhVsJAJr_TWt;" vertex="1" parent="3Wjk-fDmCc6oDtQmEqUI-164">
          <mxGeometry x="-420" y="-6" width="120" height="90" as="geometry" />
        </mxCell>
        <mxCell id="3Wjk-fDmCc6oDtQmEqUI-197" value="" style="html=1;jettySize=18;whiteSpace=wrap;fontSize=13;strokeColor=#333333;strokeOpacity=100;strokeWidth=0.8;rounded=1;arcSize=24;edgeStyle=orthogonalEdgeStyle;startArrow=none;endArrow=block;endFill=1;exitX=0.038;exitY=1;exitPerimeter=0;entryX=0.507;entryY=-0.004;entryPerimeter=0;lucidId=lhVsPcK7eQrH;" edge="1" parent="3Wjk-fDmCc6oDtQmEqUI-164" source="3Wjk-fDmCc6oDtQmEqUI-188" target="3Wjk-fDmCc6oDtQmEqUI-196">
          <mxGeometry width="100" height="100" relative="1" as="geometry">
            <Array as="points" />
          </mxGeometry>
        </mxCell>
        <mxCell id="3Wjk-fDmCc6oDtQmEqUI-198" value="" style="html=1;jettySize=18;whiteSpace=wrap;fontSize=13;strokeColor=#333333;strokeOpacity=100;strokeWidth=0.8;rounded=1;arcSize=24;edgeStyle=orthogonalEdgeStyle;startArrow=none;endArrow=block;endFill=1;exitX=0;exitY=0.5;exitPerimeter=0;entryX=1.003;entryY=0.5;entryPerimeter=0;lucidId=lhVskte.XFAw;" edge="1" parent="3Wjk-fDmCc6oDtQmEqUI-164" source="3Wjk-fDmCc6oDtQmEqUI-188" target="3Wjk-fDmCc6oDtQmEqUI-199">
          <mxGeometry width="100" height="100" relative="1" as="geometry">
            <Array as="points" />
          </mxGeometry>
        </mxCell>
        <mxCell id="3Wjk-fDmCc6oDtQmEqUI-199" value="InÃ­cio" style="html=1;overflow=block;blockSpacing=1;whiteSpace=wrap;fontSize=13;fontColor=#333333;align=center;spacing=9;strokeColor=#333333;strokeOpacity=100;fillOpacity=100;rounded=1;absoluteArcSize=1;arcSize=12;fillColor=#ffffff;strokeWidth=0.8;lucidId=lhVsYtG~QOXb;" vertex="1" parent="3Wjk-fDmCc6oDtQmEqUI-164">
          <mxGeometry x="-300" y="-321" width="120" height="90" as="geometry" />
        </mxCell>
        <mxCell id="3Wjk-fDmCc6oDtQmEqUI-200" value="" style="html=1;jettySize=18;whiteSpace=wrap;fontSize=13;strokeColor=#333333;strokeOpacity=100;strokeWidth=0.8;rounded=1;arcSize=24;edgeStyle=orthogonalEdgeStyle;startArrow=none;endArrow=block;endFill=1;exitX=1;exitY=0.787;exitPerimeter=0;entryX=-0.003;entryY=0.5;entryPerimeter=0;lucidId=lhVsemK7QxlT;" edge="1" parent="3Wjk-fDmCc6oDtQmEqUI-164" source="3Wjk-fDmCc6oDtQmEqUI-188" target="3Wjk-fDmCc6oDtQmEqUI-201">
          <mxGeometry width="100" height="100" relative="1" as="geometry">
            <Array as="points" />
          </mxGeometry>
        </mxCell>
        <mxCell id="3Wjk-fDmCc6oDtQmEqUI-201" value="Comunidade" style="html=1;overflow=block;blockSpacing=1;whiteSpace=wrap;fontSize=13;fontColor=#333333;align=center;spacing=9;strokeColor=#333333;strokeOpacity=100;fillOpacity=100;rounded=1;absoluteArcSize=1;arcSize=12;fillColor=#ffffff;strokeWidth=0.8;lucidId=lhVshHCBFL9k;" vertex="1" parent="3Wjk-fDmCc6oDtQmEqUI-164">
          <mxGeometry x="210" y="84" width="120" height="90" as="geometry" />
        </mxCell>
        <mxCell id="3Wjk-fDmCc6oDtQmEqUI-202" value="" style="html=1;jettySize=18;whiteSpace=wrap;fontSize=13;strokeColor=#333333;strokeOpacity=100;strokeWidth=0.8;rounded=1;arcSize=24;edgeStyle=orthogonalEdgeStyle;startArrow=none;endArrow=block;endFill=1;exitX=0.5;exitY=1;exitPerimeter=0;entryX=0.5;entryY=-0.004;entryPerimeter=0;lucidId=lhVsFWsF03z7;" edge="1" parent="3Wjk-fDmCc6oDtQmEqUI-164" source="3Wjk-fDmCc6oDtQmEqUI-188" target="3Wjk-fDmCc6oDtQmEqUI-203">
          <mxGeometry width="100" height="100" relative="1" as="geometry">
            <Array as="points" />
          </mxGeometry>
        </mxCell>
        <mxCell id="3Wjk-fDmCc6oDtQmEqUI-203" value="Equipes" style="html=1;overflow=block;blockSpacing=1;whiteSpace=wrap;fontSize=13;fontColor=#333333;align=center;spacing=9;strokeColor=#333333;strokeOpacity=100;fillOpacity=100;rounded=1;absoluteArcSize=1;arcSize=12;fillColor=#ffffff;strokeWidth=0.8;lucidId=lhVsd5-BGD2T;" vertex="1" parent="3Wjk-fDmCc6oDtQmEqUI-164">
          <mxGeometry x="-165" y="189" width="120" height="90" as="geometry" />
        </mxCell>
        <mxCell id="3Wjk-fDmCc6oDtQmEqUI-204" value="Menu de usuÃ¡rio" style="html=1;overflow=block;blockSpacing=1;whiteSpace=wrap;fontSize=13;fontColor=#333333;align=center;spacing=9;strokeColor=#333333;strokeOpacity=100;fillOpacity=100;rounded=1;absoluteArcSize=1;arcSize=12;fillColor=#ffffff;strokeWidth=0.8;lucidId=lhVsZ8sPONDj;" vertex="1" parent="3Wjk-fDmCc6oDtQmEqUI-164">
          <mxGeometry x="405" y="-186" width="120" height="90" as="geometry" />
        </mxCell>
        <mxCell id="3Wjk-fDmCc6oDtQmEqUI-205" value="" style="html=1;jettySize=18;whiteSpace=wrap;fontSize=13;strokeColor=#333333;strokeOpacity=100;strokeWidth=0.8;rounded=1;arcSize=24;edgeStyle=orthogonalEdgeStyle;startArrow=none;endArrow=block;endFill=1;exitX=1;exitY=0.5;exitPerimeter=0;entryX=-0.003;entryY=0.5;entryPerimeter=0;lucidId=lhVsUU9RRvc2;" edge="1" parent="3Wjk-fDmCc6oDtQmEqUI-164" source="3Wjk-fDmCc6oDtQmEqUI-188" target="3Wjk-fDmCc6oDtQmEqUI-204">
          <mxGeometry width="100" height="100" relative="1" as="geometry">
            <Array as="points" />
          </mxGeometry>
        </mxCell>
        <mxCell id="3Wjk-fDmCc6oDtQmEqUI-206" value="" style="html=1;jettySize=18;whiteSpace=wrap;fontSize=13;strokeColor=#333333;strokeOpacity=100;strokeWidth=0.8;rounded=1;arcSize=24;edgeStyle=orthogonalEdgeStyle;startArrow=none;endArrow=block;endFill=1;exitX=1.003;exitY=0.5;exitPerimeter=0;lucidId=lhVsQ0Hdg3uM;" edge="1" parent="3Wjk-fDmCc6oDtQmEqUI-164" source="3Wjk-fDmCc6oDtQmEqUI-204">
          <mxGeometry width="100" height="100" relative="1" as="geometry">
            <Array as="points" />
            <mxPoint x="651" y="-141" as="targetPoint" />
          </mxGeometry>
        </mxCell>
        <mxCell id="3Wjk-fDmCc6oDtQmEqUI-207" value="Deseja Editar perfil?" style="html=1;overflow=block;blockSpacing=1;whiteSpace=wrap;rhombus;fontSize=13.3;fontFamily=Helvetica;fontColor=#333333;spacing=3.3;strokeColor=#225798;strokeOpacity=100;rounded=1;absoluteArcSize=1;arcSize=7.5;strokeWidth=3;lucidId=lhVsae5pFT-N;" vertex="1" parent="3Wjk-fDmCc6oDtQmEqUI-164">
          <mxGeometry x="650" y="-210" width="166" height="130" as="geometry" />
        </mxCell>
        <mxCell id="3Wjk-fDmCc6oDtQmEqUI-208" value="" style="html=1;jettySize=18;whiteSpace=wrap;fontSize=13;fontColor=#333333;align=center;strokeColor=#333333;strokeOpacity=100;strokeWidth=0.8;rounded=1;arcSize=24;edgeStyle=orthogonalEdgeStyle;startArrow=none;endArrow=block;endFill=1;exitX=0.998;exitY=0.5;exitPerimeter=0;lucidId=lhVsdH3FKWFq;" edge="1" parent="3Wjk-fDmCc6oDtQmEqUI-164" source="3Wjk-fDmCc6oDtQmEqUI-207">
          <mxGeometry width="100" height="100" relative="1" as="geometry">
            <Array as="points" />
            <mxPoint x="942" y="-141" as="targetPoint" />
          </mxGeometry>
        </mxCell>
        <mxCell id="3Wjk-fDmCc6oDtQmEqUI-209" value="Sim" style="text;html=1;resizable=0;labelBackgroundColor=default;align=center;verticalAlign=middle;fontColor=#333333;fontSize=13;" vertex="1" parent="3Wjk-fDmCc6oDtQmEqUI-208">
          <mxGeometry relative="1" as="geometry" />
        </mxCell>
        <mxCell id="3Wjk-fDmCc6oDtQmEqUI-231" style="edgeStyle=orthogonalEdgeStyle;rounded=0;orthogonalLoop=1;jettySize=auto;html=1;exitX=1;exitY=0.25;exitDx=0;exitDy=0;" edge="1" parent="3Wjk-fDmCc6oDtQmEqUI-164" source="3Wjk-fDmCc6oDtQmEqUI-210">
          <mxGeometry relative="1" as="geometry">
            <mxPoint x="1140" y="-167" as="targetPoint" />
          </mxGeometry>
        </mxCell>
        <mxCell id="3Wjk-fDmCc6oDtQmEqUI-232" style="edgeStyle=orthogonalEdgeStyle;rounded=0;orthogonalLoop=1;jettySize=auto;html=1;exitX=0.75;exitY=1;exitDx=0;exitDy=0;entryX=0.412;entryY=0.02;entryDx=0;entryDy=0;entryPerimeter=0;" edge="1" parent="3Wjk-fDmCc6oDtQmEqUI-164" source="3Wjk-fDmCc6oDtQmEqUI-210" target="3Wjk-fDmCc6oDtQmEqUI-225">
          <mxGeometry relative="1" as="geometry" />
        </mxCell>
        <mxCell id="3Wjk-fDmCc6oDtQmEqUI-210" value="Tela de EdiÃ§Ã£o de perfil" style="html=1;overflow=block;blockSpacing=1;whiteSpace=wrap;fontSize=16;fontFamily=Roboto;fontColor=#ffffff;spacing=3.8;strokeOpacity=0;fillOpacity=100;rounded=1;absoluteArcSize=1;arcSize=7.5;fillColor=#225798;strokeWidth=1.5;lucidId=lhVsntgSND~G;" vertex="1" parent="3Wjk-fDmCc6oDtQmEqUI-164">
          <mxGeometry x="945" y="-186" width="126" height="76" as="geometry" />
        </mxCell>
        <mxCell id="3Wjk-fDmCc6oDtQmEqUI-211" value="" style="html=1;jettySize=18;whiteSpace=wrap;fontSize=13;fontColor=#333333;align=center;strokeColor=#333333;strokeOpacity=100;strokeWidth=0.8;rounded=1;arcSize=24;edgeStyle=orthogonalEdgeStyle;startArrow=none;endArrow=block;endFill=1;exitX=0.5;exitY=1.002;exitPerimeter=0;entryX=1;entryY=0.75;lucidId=lhVsp6Rki~RF;entryDx=0;entryDy=0;" edge="1" parent="3Wjk-fDmCc6oDtQmEqUI-164" source="3Wjk-fDmCc6oDtQmEqUI-207" target="3Wjk-fDmCc6oDtQmEqUI-204">
          <mxGeometry width="100" height="100" relative="1" as="geometry">
            <Array as="points">
              <mxPoint x="733" y="-40" />
              <mxPoint x="587" y="-40" />
              <mxPoint x="587" y="-118" />
            </Array>
          </mxGeometry>
        </mxCell>
        <mxCell id="3Wjk-fDmCc6oDtQmEqUI-212" value="NÃ£o" style="text;html=1;resizable=0;labelBackgroundColor=default;align=center;verticalAlign=middle;fontColor=#333333;fontSize=13;" vertex="1" parent="3Wjk-fDmCc6oDtQmEqUI-211">
          <mxGeometry relative="1" as="geometry" />
        </mxCell>
        <mxCell id="3Wjk-fDmCc6oDtQmEqUI-213" value="" style="html=1;jettySize=18;whiteSpace=wrap;fontSize=13;strokeColor=#333333;strokeOpacity=100;strokeWidth=0.8;rounded=1;arcSize=24;edgeStyle=orthogonalEdgeStyle;startArrow=none;endArrow=block;endFill=1;exitX=-0.003;exitY=0.5;exitPerimeter=0;entryX=1.003;entryY=0.5;entryPerimeter=0;lucidId=lhVsIXnfWUM5;" edge="1" parent="3Wjk-fDmCc6oDtQmEqUI-164" source="3Wjk-fDmCc6oDtQmEqUI-199" target="3Wjk-fDmCc6oDtQmEqUI-214">
          <mxGeometry width="100" height="100" relative="1" as="geometry">
            <Array as="points" />
          </mxGeometry>
        </mxCell>
        <mxCell id="3Wjk-fDmCc6oDtQmEqUI-214" value="Comunidades do UsuÃ¡rio" style="html=1;overflow=block;blockSpacing=1;whiteSpace=wrap;fontSize=13;fontColor=#333333;align=center;spacing=3.8;strokeColor=#333333;strokeOpacity=100;fillOpacity=100;rounded=1;absoluteArcSize=1;arcSize=12;fillColor=#ffffff;strokeWidth=0.8;lucidId=lhVsRngffVP4;" vertex="1" parent="3Wjk-fDmCc6oDtQmEqUI-164">
          <mxGeometry x="-570" y="-306" width="120" height="60" as="geometry" />
        </mxCell>
        <mxCell id="3Wjk-fDmCc6oDtQmEqUI-215" value="Voltar" style="html=1;overflow=block;blockSpacing=1;whiteSpace=wrap;fontSize=13;fontColor=#333333;align=center;spacing=9;strokeColor=#333333;strokeOpacity=100;fillOpacity=100;rounded=1;absoluteArcSize=1;arcSize=12;fillColor=#ffffff;strokeWidth=0.8;lucidId=lhVsi5qMU_Dx;" vertex="1" parent="3Wjk-fDmCc6oDtQmEqUI-164">
          <mxGeometry x="365" y="-336" width="120" height="90" as="geometry" />
        </mxCell>
        <mxCell id="3Wjk-fDmCc6oDtQmEqUI-216" value="" style="html=1;jettySize=18;whiteSpace=wrap;fontSize=13;strokeColor=#333333;strokeOpacity=100;strokeWidth=0.8;rounded=1;arcSize=24;edgeStyle=orthogonalEdgeStyle;startArrow=none;endArrow=block;endFill=1;exitX=-0.003;exitY=0.5;exitPerimeter=0;entryX=1;entryY=0.333;entryPerimeter=0;lucidId=lhVs91wirsRR;" edge="1" parent="3Wjk-fDmCc6oDtQmEqUI-164" source="3Wjk-fDmCc6oDtQmEqUI-215" target="3Wjk-fDmCc6oDtQmEqUI-188">
          <mxGeometry width="100" height="100" relative="1" as="geometry">
            <Array as="points" />
          </mxGeometry>
        </mxCell>
        <mxCell id="3Wjk-fDmCc6oDtQmEqUI-217" value="" style="html=1;jettySize=18;whiteSpace=wrap;fontSize=13;strokeColor=#333333;strokeOpacity=100;strokeWidth=0.8;rounded=1;arcSize=24;edgeStyle=orthogonalEdgeStyle;startArrow=none;endArrow=block;endFill=1;exitX=0.5;exitY=-0.004;exitPerimeter=0;entryX=0.5;entryY=1.004;entryPerimeter=0;lucidId=lhVsuUIlOCxu;" edge="1" parent="3Wjk-fDmCc6oDtQmEqUI-164" source="3Wjk-fDmCc6oDtQmEqUI-204" target="3Wjk-fDmCc6oDtQmEqUI-215">
          <mxGeometry width="100" height="100" relative="1" as="geometry">
            <Array as="points" />
          </mxGeometry>
        </mxCell>
        <mxCell id="3Wjk-fDmCc6oDtQmEqUI-218" value="" style="html=1;jettySize=18;whiteSpace=wrap;fontSize=13;strokeColor=#333333;strokeOpacity=100;strokeWidth=0.8;rounded=1;arcSize=24;edgeStyle=orthogonalEdgeStyle;startArrow=none;endArrow=block;endFill=1;exitX=-0.003;exitY=0.817;exitPerimeter=0;entryX=1.003;entryY=0.5;entryPerimeter=0;lucidId=lhVsd-3njhyM;" edge="1" parent="3Wjk-fDmCc6oDtQmEqUI-164" source="3Wjk-fDmCc6oDtQmEqUI-199" target="3Wjk-fDmCc6oDtQmEqUI-219">
          <mxGeometry width="100" height="100" relative="1" as="geometry">
            <Array as="points" />
          </mxGeometry>
        </mxCell>
        <mxCell id="3Wjk-fDmCc6oDtQmEqUI-219" value="Amigos" style="html=1;overflow=block;blockSpacing=1;whiteSpace=wrap;fontSize=13;fontColor=#333333;align=center;spacing=3.8;strokeColor=#333333;strokeOpacity=100;fillOpacity=100;rounded=1;absoluteArcSize=1;arcSize=12;fillColor=#ffffff;strokeWidth=0.8;lucidId=lhVsk.EuwY7a;" vertex="1" parent="3Wjk-fDmCc6oDtQmEqUI-164">
          <mxGeometry x="-570" y="-231" width="120" height="60" as="geometry" />
        </mxCell>
        <mxCell id="3Wjk-fDmCc6oDtQmEqUI-220" value="" style="html=1;jettySize=18;whiteSpace=wrap;fontSize=13;strokeColor=#333333;strokeOpacity=100;strokeWidth=0.8;rounded=1;arcSize=24;edgeStyle=orthogonalEdgeStyle;startArrow=none;endArrow=block;endFill=1;exitX=0.5;exitY=1;exitPerimeter=0;lucidId=lhVsJMpj8fI~;entryX=0.5;entryY=0;entryDx=0;entryDy=0;" edge="1" parent="3Wjk-fDmCc6oDtQmEqUI-164" source="3Wjk-fDmCc6oDtQmEqUI-210" target="3Wjk-fDmCc6oDtQmEqUI-222">
          <mxGeometry width="100" height="100" relative="1" as="geometry">
            <Array as="points" />
            <mxPoint x="1008" y="-10" as="targetPoint" />
          </mxGeometry>
        </mxCell>
        <mxCell id="3Wjk-fDmCc6oDtQmEqUI-241" style="edgeStyle=orthogonalEdgeStyle;rounded=0;orthogonalLoop=1;jettySize=auto;html=1;exitX=0;exitY=1;exitDx=0;exitDy=0;" edge="1" parent="3Wjk-fDmCc6oDtQmEqUI-164" source="3Wjk-fDmCc6oDtQmEqUI-221">
          <mxGeometry relative="1" as="geometry">
            <mxPoint x="500" y="-90" as="targetPoint" />
            <Array as="points">
              <mxPoint x="1130" y="-70" />
              <mxPoint x="501" y="-70" />
              <mxPoint x="501" y="-90" />
            </Array>
          </mxGeometry>
        </mxCell>
        <mxCell id="3Wjk-fDmCc6oDtQmEqUI-221" value="Editar Nome de Usuario" style="html=1;overflow=block;blockSpacing=1;whiteSpace=wrap;fontSize=13;fontColor=#333333;align=center;spacing=3.8;strokeColor=#333333;strokeOpacity=100;fillOpacity=100;rounded=1;absoluteArcSize=1;arcSize=12;fillColor=#ffffff;strokeWidth=0.8;lucidId=lhVsW8nXoe7O;" vertex="1" parent="3Wjk-fDmCc6oDtQmEqUI-164">
          <mxGeometry x="1130" y="-190" width="120" height="60" as="geometry" />
        </mxCell>
        <mxCell id="3Wjk-fDmCc6oDtQmEqUI-237" style="edgeStyle=orthogonalEdgeStyle;rounded=0;orthogonalLoop=1;jettySize=auto;html=1;exitX=0.25;exitY=1;exitDx=0;exitDy=0;" edge="1" parent="3Wjk-fDmCc6oDtQmEqUI-164" source="3Wjk-fDmCc6oDtQmEqUI-222">
          <mxGeometry relative="1" as="geometry">
            <mxPoint x="430" y="-100" as="targetPoint" />
          </mxGeometry>
        </mxCell>
        <mxCell id="3Wjk-fDmCc6oDtQmEqUI-222" value="Editar e-mail" style="html=1;overflow=block;blockSpacing=1;whiteSpace=wrap;fontSize=13;fontColor=#333333;align=center;spacing=3.8;strokeColor=#333333;strokeOpacity=100;fillOpacity=100;rounded=1;absoluteArcSize=1;arcSize=12;fillColor=#ffffff;strokeWidth=0.8;lucidId=lhVsvm_LANV6;" vertex="1" parent="3Wjk-fDmCc6oDtQmEqUI-164">
          <mxGeometry x="860" y="-50" width="120" height="60" as="geometry" />
        </mxCell>
        <mxCell id="3Wjk-fDmCc6oDtQmEqUI-223" value="" style="html=1;jettySize=18;whiteSpace=wrap;fontSize=13;strokeColor=#333333;strokeOpacity=100;strokeWidth=0.8;rounded=1;arcSize=24;edgeStyle=orthogonalEdgeStyle;startArrow=none;endArrow=block;endFill=1;exitX=-0.003;exitY=0.5;exitPerimeter=0;entryX=1.003;entryY=0.5;entryPerimeter=0;lucidId=lhVsMCnqq2BP;" edge="1" parent="3Wjk-fDmCc6oDtQmEqUI-164" source="3Wjk-fDmCc6oDtQmEqUI-196" target="3Wjk-fDmCc6oDtQmEqUI-224">
          <mxGeometry width="100" height="100" relative="1" as="geometry">
            <Array as="points" />
          </mxGeometry>
        </mxCell>
        <mxCell id="3Wjk-fDmCc6oDtQmEqUI-224" value="Comunidades do usuÃ¡rio" style="html=1;overflow=block;blockSpacing=1;whiteSpace=wrap;fontSize=13;fontColor=#333333;align=center;spacing=3.8;strokeColor=#333333;strokeOpacity=100;fillOpacity=100;rounded=1;absoluteArcSize=1;arcSize=12;fillColor=#ffffff;strokeWidth=0.8;lucidId=lhVsJlDaedIy;" vertex="1" parent="3Wjk-fDmCc6oDtQmEqUI-164">
          <mxGeometry x="-675" y="9" width="120" height="60" as="geometry" />
        </mxCell>
        <mxCell id="3Wjk-fDmCc6oDtQmEqUI-238" style="edgeStyle=orthogonalEdgeStyle;rounded=0;orthogonalLoop=1;jettySize=auto;html=1;exitX=0;exitY=0.5;exitDx=0;exitDy=0;" edge="1" parent="3Wjk-fDmCc6oDtQmEqUI-164" source="3Wjk-fDmCc6oDtQmEqUI-225" target="3Wjk-fDmCc6oDtQmEqUI-204">
          <mxGeometry relative="1" as="geometry">
            <mxPoint x="670" y="200" as="targetPoint" />
          </mxGeometry>
        </mxCell>
        <mxCell id="3Wjk-fDmCc6oDtQmEqUI-225" value="Editar Bio" style="html=1;overflow=block;blockSpacing=1;whiteSpace=wrap;fontSize=13;fontColor=#333333;align=center;spacing=3.8;strokeColor=#333333;strokeOpacity=100;fillOpacity=100;rounded=1;absoluteArcSize=1;arcSize=12;fillColor=#ffffff;strokeWidth=0.8;lucidId=lhVsCsnP8iEd;" vertex="1" parent="3Wjk-fDmCc6oDtQmEqUI-164">
          <mxGeometry x="990" y="20" width="120" height="60" as="geometry" />
        </mxCell>
        <mxCell id="3Wjk-fDmCc6oDtQmEqUI-226" value="" style="html=1;jettySize=18;whiteSpace=wrap;fontSize=13;strokeColor=#333333;strokeOpacity=100;strokeWidth=0.8;rounded=1;arcSize=24;edgeStyle=orthogonalEdgeStyle;startArrow=none;endArrow=block;endFill=1;exitX=0.5;exitY=1.004;exitPerimeter=0;entryX=0.5;entryY=-0.004;entryPerimeter=0;lucidId=lhVs3VT4UcWc;" edge="1" parent="3Wjk-fDmCc6oDtQmEqUI-164" source="3Wjk-fDmCc6oDtQmEqUI-196" target="3Wjk-fDmCc6oDtQmEqUI-227">
          <mxGeometry width="100" height="100" relative="1" as="geometry">
            <Array as="points" />
          </mxGeometry>
        </mxCell>
        <mxCell id="3Wjk-fDmCc6oDtQmEqUI-227" value="Comunidades em alta" style="html=1;overflow=block;blockSpacing=1;whiteSpace=wrap;fontSize=13;fontColor=#333333;align=center;spacing=9;strokeColor=#333333;strokeOpacity=100;fillOpacity=100;rounded=1;absoluteArcSize=1;arcSize=12;fillColor=#ffffff;strokeWidth=0.8;lucidId=lhVsB.V0PRi6;" vertex="1" parent="3Wjk-fDmCc6oDtQmEqUI-164">
          <mxGeometry x="-420" y="159" width="120" height="90" as="geometry" />
        </mxCell>
        <mxCell id="3Wjk-fDmCc6oDtQmEqUI-228" value="Nova camada (CÃ³pia)" parent="0" />
        <mxCell id="3Wjk-fDmCc6oDtQmEqUI-229" value="" style="group;dropTarget=0;pointerEvents=0;container=1;collapsible=0;recursiveResize=0;" vertex="1" parent="3Wjk-fDmCc6oDtQmEqUI-228">
          <mxGeometry as="geometry" />
        </mxCell>
      </root>
    </mxGraphModel>
  </diagram>
</mxfile>
